<mxfile host="app.diagrams.net" modified="2022-07-25T00:23:20.449Z" agent="5.0 (X11)" etag="hYtxpkNN455JkOasu7vZ" version="20.2.0" type="github">
  <diagram id="mLCP_n5XFWYdRw9TQlfD" name="PÃ¡gina-1">
    <mxGraphModel dx="868" dy="409" grid="1" gridSize="10" guides="1" tooltips="1" connect="1" arrows="1" fold="1" page="1" pageScale="1" pageWidth="850" pageHeight="1100" math="0" shadow="0">
      <root>
        <mxCell id="0" />
        <mxCell id="1" parent="0" />
        <mxCell id="zzm2j2VK6DOQVLM1jkmJ-2" value="" style="ellipse;whiteSpace=wrap;html=1;aspect=fixed;fillColor=#f8cecc;strokeColor=#b85450;" vertex="1" parent="1">
          <mxGeometry x="265" y="190" width="320" height="320" as="geometry" />
        </mxCell>
        <mxCell id="zzm2j2VK6DOQVLM1jkmJ-3" value="" style="whiteSpace=wrap;html=1;aspect=fixed;fillColor=#dae8fc;strokeColor=#6c8ebf;" vertex="1" parent="1">
          <mxGeometry x="350" y="275" width="150" height="150" as="geometry" />
        </mxCell>
      </root>
    </mxGraphModel>
  </diagram>
</mxfile>
